<svg xmlns="http://www.w3.org/2000/svg" version="1.1" xmlns:xlink="http://www.w3.org/1999/xlink" xmlns:svgjs="http://svgjs.dev/svgjs" width="2000" height="353" viewBox="0 0 2000 353"><g transform="matrix(1,0,0,1,-1.2121212121212466,-1.9244086209293414)"><svg viewBox="0 0 396 70" data-background-color="#ffffff" preserveAspectRatio="xMidYMid meet" height="353" width="2000" xmlns="http://www.w3.org/2000/svg" xmlns:xlink="http://www.w3.org/1999/xlink"><g id="tight-bounds" transform="matrix(1,0,0,1,0.2400000000000091,0.3816107746885393)"><svg viewBox="0 0 395.52 69.23677845062294" height="69.23677845062294" width="395.52"><g><svg viewBox="0 0 550.3249179189557 96.33577168742919" height="69.23677845062294" width="395.52"><g><rect width="8.644437123670395" height="96.33577168742919" x="123.53106424117442" y="0" fill="#000000" opacity="1" stroke-width="0" stroke="transparent" fill-opacity="1" class="rect-yte-0" data-fill-palette-color="primary" rx="1%" id="yte-0" data-palette-color="#000000"></rect></g><g transform="matrix(1,0,0,1,154.8049179189558,0.23964122310304958)"><svg viewBox="0 0 395.5199999999999 95.85648924122309" height="95.85648924122309" width="395.5199999999999"><g id="textblocktransform"><svg viewBox="0 0 395.5199999999999 95.85648924122309" height="95.85648924122309" width="395.5199999999999" id="textblock"><g><svg viewBox="0 0 395.5199999999999 95.85648924122309" height="95.85648924122309" width="395.5199999999999"><g transform="matrix(1,0,0,1,0,0)"><svg width="395.5199999999999" viewBox="0.8 -32.55 176.58999999999997 42.8" height="95.85648924122309" data-palette-color="#000000"><path d="M21.15-2.05L21.15-2.05Q19.95-0.2 19.95 0.35 19.95 0.9 20.4 1.15L20.4 1.15Q20.4 1.2 19.5 1.9L19.5 1.9Q18.7 2.3 17.7 2.3 16.7 2.3 16.25 2.08 15.8 1.85 15.95 1.35L15.95 1.35Q16.65-0.9 21.2-7.68 25.75-14.45 27.3-17.25L27.3-17.25Q30.65-23.3 30.65-26.9L30.65-26.9Q30.65-28.4 30.15-29.45L30.15-29.45Q29.15-31.5 25.4-31.5L25.4-31.5Q19.55-31.5 13.3-26.45L13.3-26.45Q8.3-22.4 5.65-17.88 3-13.35 3-9.8L3-9.8Q3-4.7 7.5-4.6L7.5-4.6Q7.7-4.6 7.9-4.6L7.9-4.6Q13.65-4.6 16.8-8.75L16.8-8.75Q18-10.4 18-11.55 18-12.7 17.5-13L17.5-13Q17.45-13.05 17.45-13.2 17.45-13.35 17.75-13.35L17.75-13.35Q19.05-13.35 19.05-11.65L19.05-11.65Q19.05-10.6 18.03-8.8 17-7 14.4-5.4 11.8-3.8 8.35-3.8 4.9-3.8 2.85-5.95 0.8-8.1 0.8-11.6L0.8-11.6Q0.8-19.5 11.1-27.75L11.1-27.75Q13.75-29.85 18.07-31.2 22.4-32.55 26.35-32.55 30.3-32.55 31.73-31.18 33.15-29.8 33.15-27.5L33.15-27.5Q33.15-24 30.3-18.05L30.3-18.05Q29.4-16.2 26.25-11.3L26.25-11.3 30.1-16.2Q32.9-19.85 39.8-26.6L39.8-26.6Q41.3-28.05 43.13-29.03 44.95-30 46.25-30L46.25-30Q48.05-30 48.05-28.1L48.05-28.1Q48.05-26.45 46.48-23.13 44.9-19.8 43.3-16.82 41.7-13.85 41.35-12.93 41-12 40.85-11.45 40.7-10.9 40.65-10.85L40.65-10.85Q40.8-11.1 43.95-14.68 47.1-18.25 53.25-23.6L53.25-23.6 61.25-30.2Q62.2-31 62.95-31 63.7-31 64.17-29.75 64.65-28.5 64.65-27.73 64.65-26.95 62.25-24.5L62.25-24.5Q56-18.1 51.65-10.5 47.3-2.9 47.3 0.35L47.3 0.35Q47.3 1.2 47.6 1.53 47.9 1.85 48.55 1.73 49.2 1.6 51.28 0.7 53.35-0.2 54-0.35L54-0.35Q54.25-0.25 54.25-0.1L54.25-0.1Q54.25 0.65 51.63 2 49 3.35 47.68 3.35 46.35 3.35 46.05 2.9L46.05 2.9Q45.15 1.6 45.15-0.25L45.15-0.25Q45.15-4.55 49.75-12.6L49.75-12.6Q52.7-17.65 58.85-26.2L58.85-26.2Q54.05-22.3 45.85-14.25 37.65-6.2 35.1-1.65L35.1-1.65Q33.8 0.7 31.95 0.7L31.95 0.7Q31.1 0.7 31.1 0.1L31.1 0.1Q31.1-0.1 32.13-1.7 33.15-3.3 36.65-9.2L36.65-9.2Q45.25-24.15 45.25-27.2L45.25-27.2Q45.25-28 44.7-28L44.7-28Q43.9-28 42.35-26.65L42.35-26.65Q36.8-22 30.55-14.5 24.3-7 21.15-2.05ZM54 5.8L54 5.8Q56.4 8.8 58.15 8.8L58.15 8.8Q61 8.8 64.3 4.25L64.3 4.25Q66.7 0.9 69-4.2L69-4.2 70.9-8.8 63.55-3.05Q60.15-0.4 58.1-0.4L58.1-0.4Q57-0.4 56.35-1.15 55.7-1.9 55.7-2.85L55.7-2.85Q55.7-5 59.4-9.93 63.1-14.85 64.8-14.85 66.5-14.85 66.5-13.7L66.5-13.7Q66.5-13.25 62.07-8.53 57.65-3.8 57.65-2.15L57.65-2.15Q57.65-1.5 58.5-1.5L58.5-1.5Q60.1-1.5 64.92-5.25 69.75-9 72.2-11.45L72.2-11.45Q72.75-12.1 73.75-13.4L73.75-13.4Q74.7-14.5 75.85-14.5 77-14.5 77-13.4L77-13.4Q77-13.2 74.75-9.85 72.5-6.5 72.4-6.3L72.4-6.3Q70.85-3.3 67.65 2.45L67.65 2.45Q62.8 10.25 57.95 10.25L57.95 10.25Q56.35 10.25 55.15 8.88 53.95 7.5 54 5.8ZM95.4-0.6L95.4-0.6Q94.2 1.25 94.2 1.83 94.2 2.4 94.65 2.6L94.65 2.6Q94.65 2.7 93.82 3.23 93 3.75 91.55 3.75 90.1 3.75 90.1 3L90.1 3Q90.1 1.7 95.02-5.63 99.95-12.95 101.5-15.75L101.5-15.75Q104.9-21.85 104.9-25.4L104.9-25.4Q104.9-26.8 104.35-28L104.35-28Q103.5-29.8 100.25-29.8L100.25-29.8Q94.3-29.8 87.6-24.35L87.6-24.35Q82.5-20.15 79.75-15.65L79.75-15.65Q77.25-11.4 77.25-8.05L77.25-8.05Q77.25-3.25 81.7-3.15L81.7-3.15Q81.9-3.15 82.1-3.15L82.1-3.15Q88-3.15 91.05-7.3L91.05-7.3Q92.25-8.95 92.25-10.1 92.25-11.25 91.7-11.55L91.7-11.55Q91.65-11.6 91.65-11.75 91.65-11.9 91.95-11.9L91.95-11.9Q93.25-11.9 93.25-10.2L93.25-10.2Q93.25-9.15 92.25-7.35 91.25-5.55 88.62-3.95 86-2.35 82.65-2.35 79.3-2.35 77.35-4.3 75.4-6.25 75.4-9.55L75.4-9.55Q75.4-17.35 86.1-25.95L86.1-25.95Q88.8-28.1 93.12-29.55 97.45-31 100.97-31 104.5-31 105.95-29.68 107.4-28.35 107.4-26L107.4-26Q107.4-20.3 100.5-9.85L100.5-9.85Q102.05-11.8 105.55-14.8L105.55-14.8Q118-25.25 126.95-28.55L126.95-28.55Q127.4-28.75 127.95-28.75L127.95-28.75Q129.85-28.75 130.35-26.6L130.35-26.6Q130.6-25.75 127.95-23.05L127.95-23.05Q121.7-16.65 117.35-9.05 113-1.45 113 1.85L113 1.85Q113 2.65 113.3 2.98 113.6 3.3 114.25 3.18 114.9 3.05 116.97 2.15 119.05 1.25 119.7 1.1L119.7 1.1Q119.95 1.2 119.95 1.35L119.95 1.35Q119.95 2.1 117.32 3.45 114.7 4.8 113.4 4.8 112.1 4.8 111.75 4.35L111.75 4.35Q110.85 3.1 110.85 1.2L110.85 1.2Q110.85-3.1 115.45-11.15L115.45-11.15Q118.4-16.2 124.55-24.75L124.55-24.75Q117.9-24.15 107.35-14.25L107.35-14.25Q98.95-6.3 95.4-0.6ZM124.09 0.65L124.09 0.65Q123.54 0.65 123.09 0.5L123.09 0.5Q119.89-0.4 119.89-3.1L119.89-3.1Q119.89-6.6 124.29-11.2 128.69-15.8 132.19-15.8L132.19-15.8Q133.34-15.8 134.07-15.18 134.79-14.55 134.79-13.65L134.79-13.65Q134.79-10.85 130.57-8.3 126.34-5.75 123.69-5.75L123.69-5.75Q123.29-5.75 122.99-5.85L122.99-5.85Q122.24-4.5 122.24-3L122.24-3Q122.24-0.4 124.72-0.4 127.19-0.4 131.14-3.75L131.14-3.75Q134.19-6.2 136.34-8.95L136.34-8.95Q136.79-9.55 137.12-9.55 137.44-9.55 137.44-9.25 137.44-8.95 137.04-8.4L137.04-8.4Q134.34-4.85 130.54-2.1 126.74 0.65 124.09 0.65ZM133.54-13.75L133.54-13.75Q133.54-14.35 132.27-14.35 130.99-14.35 128.64-12.4L128.64-12.4Q125.49-9.8 123.74-6.95L123.74-6.95Q124.04-6.85 124.39-6.85L124.39-6.85Q126.29-6.85 129.47-8.88 132.64-10.9 133.44-13.3L133.44-13.3Q133.54-13.55 133.54-13.75ZM154.49-15.7L154.49-15.7Q154.49-16 154.79-16L154.79-16Q155.69-16 156.19-14.9L156.19-14.9Q156.79-13.95 156.79-11.6L156.79-11.6Q156.79-8 153.64-4.23 150.49-0.45 146.84-0.45L146.84-0.45Q145.09-0.45 144.02-2.15 142.94-3.85 142.94-5.65 142.94-7.45 143.74-10.05L143.74-10.05Q142.29-8.6 139.49-5.08 136.69-1.55 135.69 0.1L135.69 0.1Q135.19 0.1 134.32-0.45 133.44-1 133.44-1.5L133.44-1.5Q133.44-2.7 136.49-9.43 139.54-16.15 141.04-16.15L141.04-16.15Q141.59-16.15 142.04-15.63 142.49-15.1 142.49-14.83 142.49-14.55 139.77-9.68 137.04-4.8 137.09-3.8L137.09-3.8Q141.84-9.55 142.14-9.9L142.14-9.9Q146.99-15.5 148.49-15.5L148.49-15.5Q149.04-15.5 149.57-15.03 150.09-14.55 150.09-14.18 150.09-13.8 148.69-11.95 147.29-10.1 146.32-8.33 145.34-6.55 145.34-4.75L145.34-4.75Q145.34-1.6 147.44-1.6L147.44-1.6 148.09-1.6Q150.79-1.6 153.02-5.73 155.24-9.85 155.24-12.35L155.24-12.35Q155.24-14.35 154.59-15.45L154.59-15.45Q154.49-15.55 154.49-15.7ZM167.64-1.8L166.04-0.75Q164.59 0.1 162.46 0.1 160.34 0.1 159.21-1.3 158.09-2.7 157.29-5.75L157.29-5.75Q156.39-4.85 156.04-4.85L156.04-4.85Q155.79-4.85 155.79-5.2 155.79-5.55 156.04-5.8L156.04-5.8Q157.69-7.85 161.64-11.7L161.64-11.7 167.94-17.6Q170.64-20.15 171.14-20.15L171.14-20.15Q172.74-20.15 172.74-18.95L172.74-18.95Q172.74-18.35 172.26-17.78 171.79-17.2 171.56-16.88 171.34-16.55 171.09-16.25L171.09-16.25Q170.19-14.7 169.26-9.85 168.34-5 167.84-3.1L167.84-3.1Q171.99-3.15 176.39-8.5L176.39-8.5Q176.89-9 177.14-9 177.39-9 177.39-8.68 177.39-8.35 176.94-7.8L176.94-7.8Q174.04-4.4 171.54-3.05L171.54-3.05Q170.04-2.3 167.64-1.8L167.64-1.8ZM159.29-6.3L159.29-6.3Q159.29-4.6 160.41-3.53 161.54-2.45 162.94-2.45 164.34-2.45 165.09-3L165.09-3Q166.09-3.55 167.06-7.6 168.04-11.65 168.24-14.75L168.24-14.75 168.44-16.45Q165.69-14.4 162.56-11.15 159.44-7.9 159.34-6.85L159.34-6.85Q159.29-6.55 159.29-6.3Z" opacity="1" transform="matrix(1,0,0,1,0,0)" fill="#000000" class="wordmark-text-0" data-fill-palette-color="primary" id="text-0"></path></svg></g></svg></g></svg></g></svg></g><g transform="matrix(1,0,0,1,0,0.2396412231030567)"><svg viewBox="0 0 100.90164768706343 95.85648924122307" height="95.85648924122307" width="100.90164768706343"><g><svg xmlns="http://www.w3.org/2000/svg" xmlns:xlink="http://www.w3.org/1999/xlink" version="1.1" x="0" y="0" viewBox="0 0 100.00007934933544 95" style="enable-background:new 0 0 100 95;" xml:space="preserve" id="icon-0" width="100.90164768706343" height="95.85648924122307" class="icon-icon-0" data-fill-palette-color="accent"><g fill="#000000" data-fill-palette-color="accent"><path d="M83.1 77.7H64.1C61.9 77.7 60.1 75.9 60.1 73.7V46.7C60.1 44.5 61.9 42.7 64.1 42.7H83.1C85.3 42.7 87.1 44.5 87.1 46.7V73.7C87.2 75.9 85.4 77.7 83.1 77.7M64.2 44.5C63 44.5 62.1 45.4 62.1 46.6V73.6C62.1 74.8 63 75.7 64.2 75.7H83.2C84.4 75.7 85.3 74.8 85.3 73.6V46.6C85.3 45.4 84.4 44.5 83.2 44.5z" fill="#000000" data-fill-palette-color="accent"></path><path d="M19.4 95C18.6 95 0 94.7 0 66V1C0 0.7 0.1 0.5 0.3 0.3S0.7 0 1 0H99C99.5 0 100 0.4 100 1V71C100 71.4 100.1 81.7 93.2 88.8 89.1 92.9 83.5 95 76.4 95zM19.5 93.1H76.5C83 93.1 88.2 91.2 91.9 87.4 98.2 81 98.2 71.1 98.2 71V1.9H1.9C2 8.3 1.9 44.4 1.9 66 1.9 92.3 17.7 93.1 19.5 93.1" fill="#000000" data-fill-palette-color="accent"></path><path d="M87.7 34.5H13.6C13.1 34.5 12.6 34.1 12.6 33.5S13 32.5 13.6 32.5H87.7C88.2 32.5 88.7 32.9 88.7 33.5S88.3 34.5 87.7 34.5" fill="#000000" data-fill-palette-color="accent"></path><path d="M50.1 46.1H14.4C13.9 46.1 13.4 45.7 13.4 45.1 13.4 44.6 13.8 44.1 14.4 44.1H50.1C50.6 44.1 51.1 44.5 51.1 45.1S50.7 46.1 50.1 46.1" fill="#000000" data-fill-palette-color="accent"></path><path d="M50.1 54.2H14.4C13.9 54.2 13.4 53.8 13.4 53.2S13.8 52.2 14.4 52.2H50.1C50.6 52.2 51.1 52.6 51.1 53.2S50.7 54.2 50.1 54.2" fill="#000000" data-fill-palette-color="accent"></path><path d="M50.1 62.3H14.4C13.9 62.3 13.4 61.9 13.4 61.3 13.4 60.8 13.8 60.3 14.4 60.3H50.1C50.6 60.3 51.1 60.7 51.1 61.3S50.7 62.3 50.1 62.3" fill="#000000" data-fill-palette-color="accent"></path><path d="M50.1 70.4H14.4C13.9 70.4 13.4 70 13.4 69.4 13.4 68.9 13.8 68.4 14.4 68.4H50.1C50.6 68.4 51.1 68.8 51.1 69.4S50.7 70.4 50.1 70.4" fill="#000000" data-fill-palette-color="accent"></path><path d="M50.1 78.5H14.4C13.9 78.5 13.4 78.1 13.4 77.5 13.4 77 13.8 76.5 14.4 76.5H50.1C50.6 76.5 51.1 76.9 51.1 77.5S50.7 78.5 50.1 78.5" fill="#000000" data-fill-palette-color="accent"></path><path d="M86.7 26.2H14.5C13.7 26.2 13 25.5 13 24.7V11.7C13 10.9 13.7 10.2 14.5 10.2H86.7C87.5 10.2 88.2 10.9 88.2 11.7V24.7C88.2 25.6 87.5 26.2 86.7 26.2" fill="#000000" data-fill-palette-color="accent"></path></g></svg></g></svg></g></svg></g><defs></defs></svg><rect width="395.52" height="69.23677845062294" fill="none" stroke="none" visibility="hidden"></rect></g></svg></g></svg>